<svg width="14" height="15" viewBox="0 0 14 15" fill="none" xmlns="http://www.w3.org/2000/svg">
<path d="M9.67957 4.45623L5.48549 8.85995C5.19595 9.16395 5.19595 9.65688 5.48549 9.96088C5.77503 10.265 6.24447 10.265 6.53399 9.96088L10.7281 5.55716C11.5966 4.64512 11.5966 3.16641 10.7281 2.25436C9.85943 1.34231 8.45113 1.34231 7.58249 2.25436L3.38847 6.6581C1.94078 8.17816 1.94078 10.6427 3.38847 12.1628C4.83616 13.6829 7.18332 13.6829 8.63099 12.1628L12.8251 7.75903L13.8736 8.85995L9.67957 13.2637C7.65278 15.3918 4.36673 15.3918 2.33996 13.2637C0.313194 11.1356 0.313194 7.68531 2.33996 5.55716L6.53399 1.15342C7.98167 -0.366652 10.3289 -0.366652 11.7766 1.15342C13.2242 2.6735 13.2242 5.13802 11.7766 6.6581L7.58249 11.0619C6.71393 11.9739 5.30559 11.9739 4.43698 11.0619C3.56836 10.1498 3.56836 8.67109 4.43698 7.75903L8.63099 3.3553L9.67957 4.45623Z" fill="white"/>
</svg>
