<svg width="19" height="19" viewBox="0 0 19 19" fill="none" xmlns="http://www.w3.org/2000/svg">
<path d="M4.24767 4.16724C5.00043 3.49364 5.89164 2.97157 6.87333 2.64896C7.41679 3.32789 8.25254 3.76271 9.18983 3.76271C10.1271 3.76271 10.9628 3.32789 11.5064 2.64896C12.4881 2.97157 13.3792 3.49364 14.132 4.16724C13.8166 4.97693 13.8582 5.91726 14.3265 6.72834C14.795 7.53989 15.5892 8.0462 16.4487 8.17753C16.5505 8.66707 16.6039 9.17426 16.6039 9.69399C16.6039 10.2136 16.5505 10.7209 16.4487 11.2104C15.5892 11.3418 14.795 11.8481 14.3265 12.6596C13.8582 13.4707 13.8166 14.4111 14.132 15.2207C13.3792 15.8943 12.4881 16.4164 11.5064 16.739C10.9628 16.0601 10.1271 15.6253 9.18983 15.6253C8.25254 15.6253 7.41679 16.0601 6.87333 16.739C5.89164 16.4164 5.00043 15.8943 4.24767 15.2207C4.56308 14.4111 4.52147 13.4707 4.0532 12.6596C3.58465 11.8481 2.79045 11.3418 1.93096 11.2104C1.82921 10.7209 1.77574 10.2136 1.77574 9.69399C1.77574 9.17426 1.82921 8.66707 1.93096 8.17753C2.79045 8.0462 3.58465 7.53989 4.0532 6.72834C4.52147 5.91726 4.56308 4.97693 4.24767 4.16724ZM10.3019 11.6202C11.3658 11.006 11.7303 9.64573 11.1161 8.58188C10.5018 7.51803 9.14156 7.15353 8.07772 7.76774C7.01388 8.38192 6.64939 9.74226 7.26359 10.8061C7.87783 11.87 9.23809 12.2344 10.3019 11.6202Z" fill="white"/>
</svg>
