<svg width="350" height="43" viewBox="0 0 350 43" fill="none" xmlns="http://www.w3.org/2000/svg">
<path d="M37.8367 28.8672C40.547 28.8672 42.157 26.7477 42.157 23.1585C42.157 19.6358 40.4436 17.6862 37.8957 17.6862C35.5768 17.6862 33.9373 19.2444 33.9373 21.4304C33.9373 23.4761 35.4143 24.9679 37.4452 24.9679C38.6933 24.9679 39.7051 24.3919 40.2073 23.3801H40.3328C40.3107 25.8467 39.4171 27.2721 37.8588 27.2721C36.9431 27.2721 36.2119 26.7773 35.983 25.9797H34.085C34.3952 27.7225 35.887 28.8672 37.8367 28.8672ZM37.9031 23.4613C36.6624 23.4613 35.8057 22.6047 35.8057 21.3713C35.8057 20.1823 36.7067 19.274 37.9105 19.274C39.1143 19.274 40.0153 20.1971 40.0153 21.4083C40.0153 22.5973 39.1364 23.4613 37.9031 23.4613ZM45.1394 27.1391C45.841 27.1391 46.321 26.6369 46.321 25.9723C46.321 25.3002 45.841 24.8054 45.1394 24.8054C44.4452 24.8054 43.9578 25.3002 43.9578 25.9723C43.9578 26.6369 44.4452 27.1391 45.1394 27.1391ZM45.1394 21.748C45.841 21.748 46.321 21.2532 46.321 20.5885C46.321 19.9165 45.841 19.4217 45.1394 19.4217C44.4452 19.4217 43.9578 19.9165 43.9578 20.5885C43.9578 21.2532 44.4452 21.748 45.1394 21.748ZM53.321 28.6088H55.1451V26.5779H56.5852V24.9679H55.1451V17.952H52.457C51.0095 20.1528 49.4955 22.5825 48.1145 24.9901V26.5779H53.321V28.6088ZM49.8795 24.9088C50.9209 23.1142 52.1542 21.1572 53.2472 19.5029H53.3506V25.0122H49.8795V24.9088ZM60.5869 28.6088H62.4922V17.952H60.5942L57.8101 19.9017V21.7332L60.4613 19.8722H60.5869V28.6088Z" fill="white"/>
<path opacity="0.35" d="M313.299 20.4779C313.299 18.8907 314.585 17.6041 316.172 17.6041H330.242C331.829 17.6041 333.115 18.8907 333.115 20.4779V24.6159C333.115 26.2031 331.829 27.4898 330.242 27.4898H316.172C314.585 27.4898 313.299 26.2031 313.299 24.6159V20.4779Z" stroke="white" stroke-width="0.873196"/>
<path opacity="0.4" d="M334.38 21.3055V24.7983C335.082 24.5025 335.539 23.8144 335.539 23.0519C335.539 22.2895 335.082 21.6014 334.38 21.3055Z" fill="white"/>
<path d="M314.517 20.478C314.517 19.5638 315.258 18.8228 316.172 18.8228H330.242C331.156 18.8228 331.897 19.5638 331.897 20.478V24.616C331.897 25.5301 331.156 26.2712 330.242 26.2712H316.172C315.258 26.2712 314.517 25.5301 314.517 24.616V20.478Z" fill="white"/>
<path fill-rule="evenodd" clip-rule="evenodd" d="M300.035 20.1367C302.076 20.1368 304.039 20.9374 305.519 22.3731C305.63 22.484 305.808 22.4826 305.918 22.37L306.983 21.2729C307.038 21.2158 307.069 21.1385 307.069 21.058C307.068 20.9775 307.037 20.9006 306.98 20.8441C303.097 17.0456 296.971 17.0456 293.088 20.8441C293.032 20.9005 293 20.9775 293 21.0579C292.999 21.1384 293.03 21.2158 293.086 21.2729L294.151 22.37C294.26 22.4827 294.439 22.4841 294.55 22.3731C296.03 20.9373 297.993 20.1367 300.035 20.1367ZM300.064 23.517C301.186 23.5169 302.267 23.9424 303.099 24.7109C303.211 24.82 303.388 24.8176 303.498 24.7056L304.562 23.6085C304.618 23.551 304.649 23.4729 304.648 23.3918C304.647 23.3107 304.614 23.2333 304.557 23.1769C302.026 20.773 298.105 20.773 295.573 23.1769C295.516 23.2333 295.483 23.3107 295.483 23.3918C295.482 23.473 295.513 23.551 295.569 23.6085L296.633 24.7056C296.742 24.8176 296.919 24.82 297.032 24.7109C297.863 23.943 298.943 23.5175 300.064 23.517ZM302.227 25.7273C302.229 25.8086 302.197 25.8871 302.14 25.9441L300.3 27.8395C300.247 27.8952 300.173 27.9265 300.096 27.9265C300.02 27.9265 299.946 27.8952 299.892 27.8395L298.052 25.9441C297.995 25.887 297.964 25.8086 297.965 25.7272C297.967 25.6459 298.002 25.5689 298.061 25.5143C299.236 24.4998 300.957 24.4998 302.132 25.5143C302.191 25.5689 302.225 25.646 302.227 25.7273Z" fill="white"/>
<path d="M279.758 20.4779C279.758 20.0209 280.129 19.6503 280.586 19.6503H281.414C281.871 19.6503 282.241 20.0209 282.241 20.4779V27.0988C282.241 27.5559 281.871 27.9264 281.414 27.9264H280.586C280.129 27.9264 279.758 27.5559 279.758 27.0988V20.4779Z" fill="white"/>
<path d="M283.896 18.8227C283.896 18.3656 284.267 17.9951 284.724 17.9951H285.552C286.009 17.9951 286.379 18.3656 286.379 18.8227V27.0988C286.379 27.5559 286.009 27.9264 285.552 27.9264H284.724C284.267 27.9264 283.896 27.5559 283.896 27.0988V18.8227Z" fill="white"/>
<path d="M275.62 23.3746C275.62 22.9175 275.991 22.547 276.448 22.547H277.276C277.733 22.547 278.103 22.9175 278.103 23.3746V27.0988C278.103 27.5559 277.733 27.9264 277.276 27.9264H276.448C275.991 27.9264 275.62 27.5559 275.62 27.0988V23.3746Z" fill="white"/>
<path d="M271.482 25.4436C271.482 24.9865 271.853 24.616 272.31 24.616H273.138C273.595 24.616 273.965 24.9865 273.965 25.4436V27.0988C273.965 27.5559 273.595 27.9264 273.138 27.9264H272.31C271.853 27.9264 271.482 27.5559 271.482 27.0988V25.4436Z" fill="white"/>
</svg>
