<svg width="30" height="29" viewBox="0 0 30 29" fill="none" xmlns="http://www.w3.org/2000/svg">
<path d="M15.1103 3.57434C17.9353 3.57434 20.2254 5.8505 20.2254 8.65829L20.2254 12.7254C20.2254 15.5332 17.9353 17.8094 15.1103 17.8094C12.2852 17.8094 9.99505 15.5332 9.99505 12.7254L9.99505 8.65829C9.99505 5.8505 12.2852 3.57434 15.1103 3.57434ZM5.95911 13.7422L8.0215 13.7422C8.51791 17.1915 11.5025 19.843 15.1103 19.843C18.7179 19.843 21.7025 17.1915 22.199 13.7422L24.2613 13.7422C23.7896 17.9839 20.401 21.3518 16.1333 21.8207L16.1333 25.9437L14.0872 25.9437L14.0872 21.8207C9.81948 21.3518 6.43088 17.9839 5.95911 13.7422Z" fill="white"/>
</svg>
