<svg width="18" height="18" viewBox="0 0 18 18" fill="none" xmlns="http://www.w3.org/2000/svg">
<path d="M8.89694 2.22424C8.08139 2.22424 7.41412 2.89151 7.41412 3.70706C7.41412 4.52261 8.08139 5.18988 8.89694 5.18988C9.71249 5.18988 10.3798 4.52261 10.3798 3.70706C10.3798 2.89151 9.71249 2.22424 8.89694 2.22424ZM8.89694 12.604C8.08139 12.604 7.41412 13.2712 7.41412 14.0868C7.41412 14.9023 8.08139 15.5696 8.89694 15.5696C9.71249 15.5696 10.3798 14.9023 10.3798 14.0868C10.3798 13.2712 9.71249 12.604 8.89694 12.604ZM8.89694 7.4141C8.08139 7.4141 7.41412 8.08137 7.41412 8.89692C7.41412 9.71247 8.08139 10.3797 8.89694 10.3797C9.71249 10.3797 10.3798 9.71247 10.3798 8.89692C10.3798 8.08137 9.71249 7.4141 8.89694 7.4141Z" fill="white" fill-opacity="0.6"/>
</svg>
