<svg width="19" height="18" viewBox="0 0 19 18" fill="none" xmlns="http://www.w3.org/2000/svg">
<path d="M8.90145 1.55212C12.5848 1.55212 15.5741 4.54148 15.5741 8.2248C15.5741 11.9081 12.5848 14.8975 8.90145 14.8975C5.21813 14.8975 2.22877 11.9081 2.22877 8.2248C2.22877 4.54148 5.21813 1.55212 8.90145 1.55212ZM8.90145 13.4147C11.7688 13.4147 14.0913 11.0922 14.0913 8.2248C14.0913 5.3574 11.7688 3.03494 8.90145 3.03494C6.03405 3.03494 3.71158 5.3574 3.71158 8.2248C3.71158 11.0922 6.03405 13.4147 8.90145 13.4147ZM15.1925 13.4674L17.2895 15.5644L16.241 16.6129L14.144 14.5159L15.1925 13.4674Z" fill="white" fill-opacity="0.4"/>
</svg>
